# xmcd
#
# Track frame offsets:
#	150
#	17791
#	34402
#	47903
#	63504
#	85491
#	101251
#	119820
#	142004
#	156627
#	175995
#	185096
#	204567
#	218552
#	234939
#
# Disc length: 3516 seconds
#
# Revision: 1
# Processed by: cddbd v1.5.2PL0 Copyright (c) Steve Scherf et al.
# Submitted via: audiograbber 1.83.01
#
DISCID=e30dba0f
DTITLE=Janina - 1 2 3
DYEAR=2008
DGENRE=Folk
TTITLE0=1 2 3
TTITLE1=Der Moment
TTITLE2=Warum reimt sich
TTITLE3=Allein - Sein - Allee
TTITLE4=My Name
TTITLE5=Kein Plan
TTITLE6=Warum schläfst du nicht bei mir ein
TTITLE7=Is This What U Call Love
TTITLE8=Ein Sturm kommt auf
TTITLE9=My Perfect Lover
TTITLE10=KFC
TTITLE11=Alkohol Mädchen
TTITLE12=König
TTITLE13=My Love Is A Stranger
TTITLE14=Nein sagen
EXTD=
EXTT0=
EXTT1=
EXTT2=
EXTT3=
EXTT4=
EXTT5=
EXTT6=
EXTT7=
EXTT8=
EXTT9=
EXTT10=
EXTT11=
EXTT12=
EXTT13=
EXTT14=
PLAYORDER=
